<?xml version="1.0" encoding="UTF-8" standalone="no"?>
<!-- Created with Inkscape (http://www.inkscape.org/) -->

<svg
   xmlns:dc="http://purl.org/dc/elements/1.1/"
   xmlns:cc="http://creativecommons.org/ns#"
   xmlns:rdf="http://www.w3.org/1999/02/22-rdf-syntax-ns#"
   xmlns:svg="http://www.w3.org/2000/svg"
   xmlns="http://www.w3.org/2000/svg"
   xmlns:sodipodi="http://sodipodi.sourceforge.net/DTD/sodipodi-0.dtd"
   xmlns:inkscape="http://www.inkscape.org/namespaces/inkscape"
   width="210mm"
   height="297mm"
   id="svg2"
   version="1.1"
   inkscape:version="0.47 r22583"
   sodipodi:docname="Zeichnung.svg"
   inkscape:export-filename="/home/nico/Desktop/love2d/p1/img/llama/llama_svg.png"
   inkscape:export-xdpi="90"
   inkscape:export-ydpi="90">
  <defs
     id="defs4">
    <inkscape:perspective
       sodipodi:type="inkscape:persp3d"
       inkscape:vp_x="0 : 526.18109 : 1"
       inkscape:vp_y="0 : 1000 : 0"
       inkscape:vp_z="744.09448 : 526.18109 : 1"
       inkscape:persp3d-origin="372.04724 : 350.78739 : 1"
       id="perspective10" />
    <inkscape:perspective
       id="perspective2884"
       inkscape:persp3d-origin="0.5 : 0.33333333 : 1"
       inkscape:vp_z="1 : 0.5 : 1"
       inkscape:vp_y="0 : 1000 : 0"
       inkscape:vp_x="0 : 0.5 : 1"
       sodipodi:type="inkscape:persp3d" />
  </defs>
  <sodipodi:namedview
     id="base"
     pagecolor="#ffffff"
     bordercolor="#666666"
     borderopacity="1.0"
     inkscape:pageopacity="0.0"
     inkscape:pageshadow="2"
     inkscape:zoom="0.53588673"
     inkscape:cx="350"
     inkscape:cy="796.16301"
     inkscape:document-units="px"
     inkscape:current-layer="layer1"
     showgrid="false"
     inkscape:window-width="974"
     inkscape:window-height="544"
     inkscape:window-x="0"
     inkscape:window-y="19"
     inkscape:window-maximized="0" />
  <metadata
     id="metadata7">
    <rdf:RDF>
      <cc:Work
         rdf:about="">
        <dc:format>image/svg+xml</dc:format>
        <dc:type
           rdf:resource="http://purl.org/dc/dcmitype/StillImage" />
        <dc:title></dc:title>
      </cc:Work>
    </rdf:RDF>
  </metadata>
  <g
     inkscape:label="Ebene 1"
     inkscape:groupmode="layer"
     id="layer1">
    <path
       style="fill:#000000"
       d="m 382.6733,207.85111 c -0.71854,0.13303 -0.74657,1.14438 -1.59046,0.98155 -2.03837,0.94914 -3.63221,2.83687 -4.75321,4.7623 -0.026,0.648 -0.9272,0.85817 -0.6998,1.59954 -1.01558,0.40446 0.10249,1.81434 -0.39988,2.28118 -0.83957,0.0218 -1.48629,0.84197 -0.8634,1.37234 -0.86235,0.5635 -1.08919,1.82627 -0.91792,2.65379 -0.69031,1.21009 -0.3181,2.7857 -0.71316,4.1244 -0.38699,3.14695 -0.13771,6.44371 -0.67736,9.51722 -1.18526,1.71457 -2.3789,3.72008 -2.55383,5.80745 -1.73624,3.41442 -0.66107,7.46098 0.0909,10.9878 0.31147,1.21852 0.69752,2.50586 1.61772,3.35361 0.67826,1.80199 1.29448,4.1625 3.30816,4.835 1.40815,0.81229 3.12748,2.28398 4.93497,1.84493 0.34498,-0.2859 0.92939,0.66716 1.42687,0.0272 0.52457,-0.8596 0.86974,0.61095 1.65408,0.0182 2.8601,-1.13342 4.58068,-3.9105 7.16162,-5.39848 1.75952,-0.37959 3.83364,-0.40372 5.58933,-0.26356 1.15105,1.01899 3.02004,-0.22089 4.16247,0.79068 0.79329,0.23803 1.82229,-0.25665 2.48112,0.16359 -0.30532,1.02305 1.28595,1.43166 1.60863,2.07215 -3.08267,0.1163 -6.29685,0.27024 -9.20649,1.23602 -1.54282,0.82434 -0.42598,2.83184 0.82704,3.30815 0.69534,0.65818 2.25438,-0.0286 2.23573,1.29054 0.66373,2.22074 3.85248,2.11692 5.3803,0.92702 0.77649,-0.56162 0.0206,-1.94228 1.11787,-1.98127 0.88989,0.74552 2.05733,-0.95366 2.74468,-0.53621 0.34428,1.09488 1.87534,0.6121 2.08123,1.79041 0.35855,0.94217 0.5278,2.17721 0.29083,3.09004 -1.48867,0.41476 -3.36678,1.19443 -3.87164,2.79012 -0.14057,0.78541 -1.62304,0.56331 -2.1812,0.80887 -0.88441,-1.13334 -2.77138,-0.43804 -4.01687,-0.72828 -1.42278,-0.054 -2.96349,-0.27473 -4.2808,0.28294 -1.76024,-0.52178 -3.86444,-0.38773 -5.52571,0.39989 -1.26313,-0.90874 -2.38587,-2.44268 -3.98978,-2.61744 -1.19227,0.43 -0.35098,2.10934 -0.19086,2.74468 -1.66411,0.50064 -4.06162,1.77012 -3.6626,3.83527 0.35948,0.86959 1.42406,0.009 1.76314,0.14542 0.88679,1.98475 2.45526,3.86556 2.93554,5.91651 -0.57263,-1.04405 -1.89783,-0.41888 -2.09033,0.58166 -0.47503,1.12097 -0.36947,2.45964 0.17268,3.48084 0.21554,2.42074 -0.43849,5.15113 0.92702,7.31612 1.56749,0.0637 0.91409,-2.14734 1.20875,-3.14457 0.14324,-1.08118 0.0379,-2.83318 0.35443,-3.53537 0.93116,1.07351 1.89356,-0.56684 1.66318,-1.49957 0.12376,-0.98186 -0.3672,-2.39788 -1.07244,-2.68107 1.09804,-2.52857 -1.29321,-4.93016 -1.49048,-7.407 -0.4788,-0.60668 -0.0694,-0.65706 0.57257,-0.53621 0.86555,0.29207 1.64906,-0.17861 2.263,-0.6271 2.51608,-0.54507 5.02189,1.02962 7.52515,0.0637 0.40461,0.38203 1.42081,0.74468 1.84493,-0.0637 0.57029,0.4803 1.31042,0.18892 1.97217,0.49986 0.71782,0.12165 1.70843,-0.0208 1.94491,-0.65436 1.99796,0.63713 3.91014,-0.98815 5.65296,-1.74496 2.28943,-1.00466 4.58936,-3.3381 3.76257,-6.03466 -0.60561,-2.38799 -2.89012,-3.6161 -4.7623,-4.85318 -0.64184,-0.97302 -0.433,-2.40163 -1.20875,-3.38996 -0.52252,-0.9272 -1.11045,-1.9303 -2.19937,-2.24482 3.55114,-2.87098 4.27222,-8.09385 2.7223,-12.2199 -0.69106,-2.64591 -2.58544,-5.54747 -4.94896,-6.46574 1.67297,-1.25087 1.74496,-3.71796 2.02544,-5.63361 0.3141,-5.35567 0.49101,-10.8965 -0.92574,-16.10572 -0.23212,-0.88378 -1.55268,-2.21722 -2.14485,-1.33598 -0.12623,0.61486 0.5931,0.99417 -0.28173,0.66346 -1.62205,0.5089 -1.37579,2.83226 -2.24626,4.04068 -1.9084,3.66813 -3.04065,7.84293 -2.16492,12.01536 0.3405,1.89752 0.48666,4.12424 0.90307,5.8196 -0.54437,0.31601 -0.54329,0.69536 -1.26328,0.42715 -0.95128,-0.1339 -1.55781,0.67067 -1.76314,1.42687 -0.59232,0.60794 -1.81771,0.52228 -1.57229,-0.57256 -0.8767,-2.20738 -2.6115,-4.14536 -4.66232,-5.33487 -0.70147,-0.20336 -0.91466,-1.2417 -1.69043,-1.52684 -0.93184,-0.71344 -2.98199,-1.91279 -3.64443,-0.33626 0.11742,0.56627 -1.08118,1.17979 0.0272,1.51776 0.75312,0.0939 1.50172,-0.36658 1.7177,0.62708 1.12079,1.05284 2.35115,2.3297 3.96253,2.53565 0.81293,-0.42079 0.32987,0.89131 0.59982,1.27237 0.89185,2.61673 2.55555,5.10042 2.28118,8.01593 0.31895,4.8728 -1.47604,9.81109 -5.31668,12.87818 -1.49451,1.49832 -3.34373,2.74434 -5.54389,2.50839 -2.11732,0.19389 -3.30076,-2.01291 -4.62597,-3.29908 -2.72897,-3.16664 -4.02228,-7.31789 -3.52628,-11.47858 -0.0464,-2.22276 0.93111,-4.21132 1.50867,-6.28914 -0.0785,-0.80181 1.20254,-0.9934 1.43877,-1.81987 1.24417,-1.54038 2.3683,-3.53141 4.37776,-4.03302 1.06934,-0.72923 2.94906,-1.91846 1.98127,-3.4263 -1.91931,-2.96975 -0.44925,-6.70183 0.2364,-9.85159 0.35583,-0.74403 0.26007,-1.96407 0.6906,-2.554 1.63193,-0.64543 1.89511,-2.83344 2.48112,-4.2897 0.42433,-1.54379 0.88392,-3.95493 -0.72707,-4.92589 -0.0872,-0.0152 -0.17591,-0.0489 -0.26356,-0.009 z m -1.19057,3.70806 c -0.26111,2.33307 -2.26418,4.10185 -2.88056,6.38623 -1.70931,3.53621 -2.00418,7.55315 -1.20919,11.37239 0.20851,0.72749 0.35837,1.13002 -0.50895,1.02698 -0.92737,0.30303 -1.57138,1.08427 -2.34479,1.63591 -0.0124,-3.37329 0.91709,-6.84056 0.21812,-10.16986 0.13094,-0.42899 0.97636,-0.97805 1.09968,-1.64499 0.64753,-0.63924 -0.23299,-1.51354 0.61801,-1.89038 1.63048,-2.24371 2.40617,-5.34265 5.00768,-6.71628 z m 18.91285,5.56207 c 0.48192,5.32516 0.58773,10.77856 -0.3181,16.0591 -0.19325,0.92022 -0.58985,1.73108 -1.19056,2.31753 -0.28197,0.75679 1.83097,1.44346 0.41805,1.11787 -1.09708,0.10759 -1.22439,-0.94949 -1.20874,-1.79041 -0.86351,-4.59295 -1.41207,-9.53744 0.80708,-13.85361 0.57509,-1.30759 1.12313,-2.62778 1.46501,-4.01407 l 0.0272,0.16359 z m -2.61744,21.86656 c 0.95255,-0.20851 1.49791,0.38736 2.22664,0.7816 2.05113,0.0642 2.58489,2.55997 3.38087,4.05339 0.26713,0.63008 0.18927,1.376 0.69071,1.81767 0.0815,1.81838 0.0265,3.79087 -0.32719,5.51664 -1.07421,1.04446 -2.03964,2.56074 -2.0994,4.08975 -2.3644,-0.39867 -4.61296,-1.25843 -7.06165,-1.08151 -1.19475,-0.084 -2.92299,0.13618 -3.80802,-0.21813 1.67262,-2.71052 1.67995,-6.10611 1.85402,-9.2065 0.3366,-1.49009 -1.15359,-3.39634 0.22722,-4.55326 1.46225,-0.94158 3.20351,-1.17577 4.9168,-1.19965 z m -19.72172,6.68902 c -1.70915,0.5673 -2.0797,2.869 -1.90855,4.45329 0.4323,1.71078 2.7481,1.11551 3.38087,-0.13632 0.88714,-0.95908 1.3112,-2.57572 0.1,-3.46267 -0.41499,-0.43918 -0.91995,-0.92889 -1.57228,-0.8543 z m 19.82168,1.60864 c -1.86991,0.10386 -3.35405,2.94786 -1.44504,4.08976 1.0273,1.10092 2.86103,0.52135 3.16274,-0.93611 0.7081,-1.41332 0.13757,-3.39407 -1.7177,-3.15365 z m -27.7649,8.88839 c -1.27834,0.22942 -2.52855,1.25735 -2.74468,2.49931 -1.86636,0.63422 -2.8539,2.75562 -3.46265,4.49873 -0.27621,0.60672 0.47411,1.26672 -0.35445,1.52684 -2.70002,2.12495 -3.68534,5.57497 -5.77608,8.23757 -0.86747,1.4717 -1.83185,3.12577 -2.12169,4.74059 -0.15055,0.91246 -1.30644,0.57801 -1.62682,1.46322 -0.60949,0.61156 -0.10772,2.10036 -1.19966,1.79949 -0.95637,0.55452 -2.07426,1.83069 -1.49958,2.99916 -1.29698,0.97601 -2.4315,2.57958 -2.82647,4.01705 -2.30614,1.18703 -4.41224,2.98075 -5.91651,5.08038 -0.50986,1.17891 -1.58579,2.28399 -1.89947,3.65352 -3.37767,0.96637 -6.85973,1.76938 -10.20621,2.82647 -0.65786,0.0627 -1.66354,-0.17432 -1.86311,0.7089 -1.73743,0.37798 -3.45232,1.13594 -4.85318,2.24481 0.14333,0.70416 -0.98402,0.001 -1.3996,0.42716 -0.61922,0.0371 -1.77616,0.89457 -2.02671,0.69981 -0.0234,-1.48489 -1.95153,-1.81172 -3.03551,-2.3448 -1.58286,-0.41692 -3.3853,-1.29001 -5.00768,-0.79069 -0.4584,0.87357 -1.56861,-0.0861 -2.41742,0.17485 -0.80224,-0.0713 -1.67093,0.18098 -2.19037,0.67947 -1.04341,-0.0217 -2.88651,-0.25447 -2.9628,1.0088 -1.0631,0.10361 -2.28477,0.62301 -3.20818,0.74523 0.31924,-1.45649 -1.31838,-2.78463 -2.67198,-2.32662 -1.43916,-0.97122 -3.43011,-0.12778 -5.04403,-0.23629 0.0674,-3.56981 0.28668,-7.39529 -1.79949,-10.47886 -1.73717,-2.61722 -3.79488,-5.37426 -6.75265,-6.6254 -1.87511,-0.38567 -2.79634,1.72865 -2.89232,3.2438 -1.27583,4.54703 -0.93784,9.5313 0.34759,14.03314 0.20383,1.07516 1.37996,2.24434 2.38114,1.23602 1.0164,-0.66544 0.99546,-2.13421 -0.11816,-2.69015 -2.01088,-1.48026 -1.12519,-4.31836 -1.38142,-6.4709 0.0611,-2.10429 0.0235,-4.37804 0.84522,-6.31641 0.34534,-0.38024 1.08416,-1.06504 1.59045,-0.74524 -0.068,1.18407 1.14639,2.33344 2.25391,2.46294 2.60046,3.46947 4.41424,8.0853 2.99915,12.37833 -0.16444,0.73953 -0.26555,1.20281 -1.0906,0.98154 -1.59196,0.19034 -1.70029,2.57313 -0.0454,2.81738 1.79066,0.36281 3.19272,-1.54559 5.03494,-1.32689 1.21032,-0.34591 2.39888,-0.82703 3.72623,-0.618 -0.47453,0.76528 0.64558,1.93529 -0.69773,1.90172 -1.70826,0.13425 -2.58168,1.66378 -3.24662,3.0605 -0.0662,1.44993 1.81918,0.61922 2.55382,0.29084 1.51209,-0.43006 3.04414,-1.90706 4.61689,-1.00881 2.99771,0.19951 4.14245,-3.87628 7.14344,-3.63534 0.73542,0.20119 1.37477,-0.98189 1.80858,-0.29082 0.56267,0.50174 1.35542,-0.16991 1.73588,-0.009 0.41998,0.67546 1.35202,0.0652 1.43596,-0.30901 0.41622,1.87411 2.81375,0.20761 3.78074,1.55412 0.9022,0.42848 1.14363,0.57187 -0.0852,0.97675 -2.3333,0.95412 -2.67282,1.84941 0.11107,1.44636 2.62021,-0.38668 5.59179,0.102 7.91733,-1.3416 0.57649,-0.25965 1.5141,0.44226 2.30843,0.29083 1.09135,0.16829 3.25833,-0.38832 2.57201,-1.89038 -0.41809,-0.58638 -1.12924,-0.93339 -1.82677,-1.04516 2.34444,-0.92912 4.72077,-2.52652 7.2525,-2.56291 0.31578,1.31381 1.95346,0.28476 2.41751,-0.309 0.94144,0.38501 1.56259,-0.71281 2.44476,-0.42716 0.88377,-0.3934 0.67733,0.072 0.9361,0.6998 1.23824,1.20546 2.70009,-0.59335 3.28998,-1.62681 0.69137,-0.78492 0.88889,-2.28492 0.0909,-2.79013 0.86538,-0.63604 2.23381,-1.73825 1.49957,-2.93553 -0.65378,-0.27283 -1.00278,0.56105 -1.36325,0.63618 0.35168,-0.49263 0.23454,-1.28322 0.98154,-0.73616 1.65596,0.32098 2.13463,-1.93707 3.60808,-2.29025 0.98612,-0.44451 2.33308,-0.78093 3.10821,-1.36326 0.45302,0.92244 1.69548,0.5793 1.50866,-0.45441 0.34997,-1.34306 -0.98541,-2.46223 -2.24481,-1.89946 -0.59644,0.0246 -1.37662,1.31859 -0.93611,0.2272 0.14787,-0.65097 1.26211,-0.53987 1.59955,-1.22693 0.76043,-0.81849 2.22845,-1.9893 1.47231,-3.1991 0.72314,-0.29816 0.98865,-1.36944 1.44506,-1.64499 1.0527,0.17966 1.01995,-1.19046 1.9449,-1.41777 0.89452,-0.40791 2.81807,-1.7958 1.37234,-2.67198 -0.5683,-0.28336 -1.83045,0.47236 -0.96336,-0.59983 0.82204,-1.84697 2.51029,-3.11004 3.34451,-4.9168 1.25413,0.13872 2.04944,-1.48562 2.17211,-2.55383 -0.66961,-0.66191 -0.10038,-1.68486 0.31809,-2.30843 1.36755,1.40183 4.36452,-0.8904 3.27181,-2.59018 -0.34366,-0.6362 -1.34073,-0.18122 -1.62682,-0.32718 1.2044,-2.1698 3.43972,-3.54826 5.10766,-5.27125 0.5315,-0.73536 0.002,-1.82799 -0.96338,-1.64498 z m 0.99972,2.9719 c -0.97308,-0.0274 -0.4803,1.31919 -1.27236,1.25419 -1.00759,0.3897 -0.99232,2.39638 0.35445,1.99035 0.76068,-0.28717 1.24367,-0.68489 1.90855,-0.99063 0.31331,-0.80222 0.17242,-2.35703 -0.99064,-2.25391 z m 11.82394,34.26306 c -1.30638,0.67407 -0.14651,2.53363 -0.27106,3.63286 0.21764,1.92193 0.6471,4.77632 0.63459,6.1553 -0.35065,-1.15362 -1.90182,-0.94536 -2.19938,0.14541 -0.86437,2.21936 -1.40598,4.72313 -1.17239,7.098 0.36812,0.51126 -0.48036,1.14495 -0.26357,1.83585 0.3012,2.97109 0.66016,5.9424 0.74525,8.94292 0.0591,1.2658 1.54839,0.61146 1.46322,-0.35444 0.39497,-3.13624 0.4706,-6.44842 -0.21811,-9.52458 -0.41285,-0.45768 -0.46312,-0.69819 -0.0454,-1.16331 0.22178,-0.28304 0.27541,-1.54214 0.30901,-0.52713 0.37584,1.64789 0.006,3.9501 1.53593,5.04403 1.63355,0.24744 1.79307,-2.03695 1.95975,-3.16995 0.47708,-4.70457 0.10498,-9.4485 -0.38747,-14.10699 0.006,-1.13081 0.89902,-2.60936 -0.4635,-3.35361 -0.50209,-0.25504 -1.01288,-0.76856 -1.62682,-0.65436 z m -105.06129,4.58054 c -2.93245,0.31321 -5.44058,2.38601 -6.34366,5.18034 -0.97845,2.61842 -2.14943,5.47488 -1.73588,8.31585 0.30279,1.24847 0.21461,2.74658 0.74524,4.02614 0.80726,1.795 1.10566,3.75096 1.89947,5.54388 0.27768,0.52512 1.10839,0.63372 0.42715,1.26329 -0.6038,0.71409 -1.20849,1.54969 -1.46322,2.40841 -1.74154,0.60812 -1.12555,2.76582 -0.87248,4.11701 0.24702,0.97777 1.52541,0.50763 1.89038,1.35417 0.76277,0.66586 2.4845,-0.0726 1.5541,-1.07242 -0.96221,-0.69576 -2.43058,-1.8232 -1.37233,-3.10822 0.58664,-0.45784 0.37412,-1.66357 1.27237,-1.37234 0.45431,-0.5609 0.9634,-0.31386 1.61772,-0.57257 1.37355,-0.96394 0.81051,-3.04256 -0.48169,-3.78983 -0.41521,-0.37639 -1.44253,-1.13447 -0.309,-0.90883 1.92816,-0.4408 1.73907,-3.19942 0.17269,-4.01706 -0.62474,-0.58081 -1.60626,-0.45181 -2.28119,-0.42715 -0.49487,-1.06758 -0.83192,-2.38596 -1.34507,-3.3536 0.81567,-2.23541 0.68629,-4.74161 1.91764,-6.8617 0.63214,-1.57936 1.65683,-2.9814 3.1173,-3.83528 0.13376,-0.6649 1.02256,-0.42645 1.26328,-0.11816 0.30362,1.32134 -0.80077,3.5558 0.89067,4.17154 1.77211,0.007 1.10859,-2.28226 1.13603,-3.38995 -0.0256,-1.22899 1.87111,-1.48582 1.45414,-2.82647 -0.81735,0.22516 -1.14814,0.076 -1.62681,-0.50896 -0.45535,-0.268 -1.01624,-0.26037 -1.52685,-0.21811 z m 3.07186,2.48112 c -1.10227,-0.0804 -0.98015,1.32063 -0.10908,1.59954 0.27691,0.7914 -0.56108,2.21973 0.75433,2.4175 1.78452,-0.50833 1.75582,-4.15418 -0.43625,-4.02614 l -0.20904,0.009 z m 64.47274,5.47118 c -1.2855,0.29921 -1.44285,3.21986 0.2363,2.7265 1.29804,-0.40165 1.2939,-2.75394 -0.2363,-2.7265 z m 33.43602,18.44025 c -1.31211,0.75225 -0.98364,2.81876 -1.66189,4.03522 -0.76865,2.79313 -1.55013,5.59817 -2.76412,8.20679 -0.34604,1.60838 0.10833,4.0716 -0.12725,5.18945 -1.26531,-1.05357 -2.64909,0.80485 -3.45357,1.6359 -1.08981,1.1952 -1.78448,2.99178 -3.48992,3.34451 -0.62393,0.44125 -0.72007,1.36057 -1.64499,1.28145 -0.98664,0.36206 -0.34853,1.74101 -1.36326,1.83585 -0.36019,0.88934 -1.42579,1.00708 -2.08122,1.72678 -0.91387,0.77907 -1.74848,1.62155 -2.47204,2.58109 -0.46713,-1.42865 0.45593,-3.63687 -1.0906,-4.50781 -1.54987,0.21251 -1.32499,2.36053 -1.59047,3.51718 -0.3859,1.47761 0.16847,3.40307 1.92674,3.44448 0.89477,-0.01 2.11768,-0.42867 2.23573,-1.3996 0.48279,-0.0787 0.90997,-0.34672 0.42715,0.26356 -0.33262,1.1679 -1.14433,2.64951 -2.22664,3.01734 -0.84979,-1.07678 -2.64462,-0.44338 -3.47175,-0.34537 0.0627,-1.28616 -1.54824,-1.03239 -2.15393,-0.32718 -0.78583,0.41 -1.33207,1.30241 -1.97218,1.76314 -0.38682,0.0256 -1.36381,0.1391 -0.83612,-0.4635 0.71889,-0.56041 1.35284,-2.39945 -0.1545,-2.16302 -1.44524,0.48067 -2.36282,1.8475 -2.62654,3.2718 -1.01732,1.39953 -2.36412,2.75679 -2.29935,4.64414 -1.30719,-0.29138 -2.74367,0.16666 -3.55355,1.20875 -0.39962,-1.1337 -2.13037,-2.88171 -3.20818,-1.53593 -1.84669,3.98185 -1.68889,8.59819 -2.74947,12.82664 -0.0703,0.7224 -0.58941,1.15537 -0.43145,0.19696 0.45217,-2.62435 0.77438,-5.29013 1.59954,-7.80688 0.40353,-1.14919 -0.12543,-3.49275 -1.75404,-2.72651 -0.73707,0.2406 -0.82604,1.37734 -1.29056,1.62681 -0.84134,-1.03864 -2.04057,0.34093 -2.28117,1.00881 -1.05678,-1.73318 -0.31764,-4.37004 -2.4084,-5.48028 -0.97891,-0.65154 -1.64031,0.65519 -1.1815,1.47232 -0.28138,1.98582 -1.54374,3.66123 -2.15393,5.55298 -0.69789,-1.08548 -1.77432,-1.86155 -2.63562,-2.81739 -2.20513,1.19407 -3.78517,3.32284 -3.94461,5.85889 -0.75598,3.41035 -1.03901,6.96816 -2.25364,10.20931 -0.20542,1.28325 1.74834,2.04487 2.14484,0.60892 1.64381,-4.20122 1.39058,-9.29838 3.69896,-13.0963 1.11728,0.43685 1.20521,1.8372 1.38144,2.91735 0.19406,1.79384 -1.22813,3.90365 -0.0818,5.51663 1.34277,0.767 1.79108,-1.37384 2.11758,-2.21756 0.91433,-2.64481 1.46815,-5.46527 2.89919,-7.8796 0.1592,1.81289 -0.67396,4.1737 0.6271,5.68022 1.36736,0.50104 1.95253,-1.45089 2.26298,-2.43567 -0.18876,-0.49919 1.13198,-0.59596 0.50896,-0.10001 -0.58878,0.78067 -0.64234,2.86398 0.75433,2.40842 0.322,0.0527 -0.076,1.69487 0.0618,2.31744 -0.19362,1.2361 0.80746,2.63196 2.16485,2.13585 2.2919,-0.92985 2.40294,-3.91243 2.95372,-5.98922 0.42975,-2.00449 0.57452,-4.11549 1.20874,-6.05284 0.0519,0.59669 -0.11555,2.40193 1.1633,2.39933 0.62948,0.16351 1.59637,-1.34224 1.23603,-0.19995 0.36201,6.8132 0.81733,13.68033 0.24538,20.49422 -0.34791,3.20698 -4.07797,4.05394 -6.13464,5.95287 -1.07473,0.64734 -2.0523,2.55221 -0.48168,3.25363 1.43029,0.76605 3.32663,0.47169 4.71685,0.48168 0.98585,1.10782 2.90682,0.36965 4.25336,0.63618 1.07021,0.22922 2.75139,-0.57588 3.19,-0.74524 -0.37798,1.59305 1.84764,1.24579 2.09033,0.10001 0.73537,1.05566 3.70014,2.20218 3.36268,-0.0546 -0.0174,-0.52376 -1.06682,-1.42336 0.0182,-1.21784 1.40311,-0.13608 3.30053,0.10262 4.28061,-1.01789 1.00997,-0.14636 2.79515,-1.51804 2.20847,-2.95371 -0.67766,-1.31241 -2.46322,-1.11712 -3.36269,-2.22665 -2.13326,-1.36362 -3.30918,-3.67001 -3.60807,-6.13463 -1.4019,-5.29345 0.1409,-10.69966 1.14049,-15.90561 0.61576,-3.22228 1.94512,-6.19156 3.28554,-9.15096 0.35065,-0.45955 -0.10449,-1.40656 -0.11817,-1.49049 0.57962,0.0545 0.74672,-0.082 1.05425,0.4726 1.84504,0.61472 3.15606,-1.54547 4.05341,-2.82649 0.81384,-0.9722 1.36226,-3.28925 -0.12725,-3.63534 1.70582,-1.46746 3.65536,-3.44926 4.77138,-5.08947 1.24706,0.62067 2.25123,-1.03483 3.0446,-1.78131 0.4872,-0.68512 1.21617,-1.58604 1.09061,-0.19086 -0.10088,1.27914 0.95491,3.08084 2.41749,2.28118 1.99354,-1.51688 1.90366,-4.44525 2.23573,-6.71629 0.27249,-3.70714 0.58094,-7.63265 2.3448,-10.92419 0.96027,0.46043 2.03952,-0.22973 1.90855,-1.31781 -0.10872,-2.05287 0.45253,-4.63367 -1.09969,-6.23461 -0.20944,-0.14738 -0.48544,-0.30171 -0.74524,-0.21812 z m -102.10757,3.62626 c -2.3434,0.12552 -2.56851,2.94867 -2.63562,4.7532 0.0548,2.76285 -0.49637,5.74522 0.44532,8.37037 0.18883,1.37868 -0.0473,3.24137 0.99064,4.22608 -0.15989,1.56142 0.63257,3.07296 1.28145,4.38966 -0.21896,1.03106 1.05265,1.89604 1.87221,2.09033 0.46946,3.58318 0.34875,7.34279 1.76313,10.70606 0.35774,0.90508 0.45954,2.62816 1.83585,2.12669 1.64759,2.34632 1.0738,5.49683 1.57562,8.2117 0.70878,5.15975 2.53106,10.15195 2.99582,15.37255 0.30182,2.39664 0.95101,5.24579 -0.99064,7.098 -0.85845,0.9685 -2.22634,2.54605 -0.98153,3.77166 0.67282,0.7894 1.98732,1.72149 3.00824,0.99972 0.95714,1.02035 2.10412,-0.19675 3.25351,0.10051 2.72719,-0.22959 5.90981,0.62497 8.32505,-0.94574 1.07745,-0.82003 0.86729,-3.10338 -0.7907,-2.89918 -0.40836,0.13241 -1.97648,-0.48673 -0.68161,-0.32718 0.8429,0.0476 2.20064,0.31361 2.4902,-0.67254 1.32143,0.37112 2.85984,-0.75725 3.32634,-1.96308 -0.0572,-1.79847 -2.43312,-1.97824 -3.68079,-2.58108 -3.78171,-1.38604 -5.09885,-5.8552 -5.05313,-9.47915 0.36718,-0.83801 0.51402,0.98346 0.83614,1.22693 0.76576,1.37461 1.25129,3.05663 2.4993,4.06248 1.51578,-0.1107 1.98163,-2.09959 2.19937,-3.34451 0.33669,-0.8969 -0.63151,-2.31165 -1.25419,-1.14513 -0.29699,0.34608 -0.36961,1.66935 -0.80886,1.50866 -0.85206,-1.54056 -1.42904,-3.49101 -2.51748,-4.7532 0.6448,-0.78358 0.78654,-1.93018 1.02699,-2.78103 0.98997,-0.2272 0.94427,-1.71228 0.0363,-1.96308 0.90384,-1.03257 1.77109,-2.90435 0.82704,-4.1352 -1.21497,-0.54843 -1.75075,1.11115 -1.39961,2.01761 -0.20847,1.01774 -0.11916,-0.83726 -0.12723,-1.18149 0.11555,-1.89928 0.3398,-3.81585 0.86339,-5.6166 0.13381,0.84526 1.15219,2.63164 1.96308,1.31782 0.4097,-2.06051 -0.6675,-4.11097 -1.02698,-6.11646 -1.61192,1.73176 -4.06452,3.26542 -3.95344,5.93469 -0.27038,3.36696 -0.005,6.78835 -0.309,10.1335 -0.85125,0.0337 -0.65996,-1.49267 -0.94519,-2.11758 -0.36451,-2.1532 0.66429,-4.76377 -0.94519,-6.60723 -0.80391,-0.85553 -2.05818,-0.0198 -2.44476,0.71798 -0.90308,-1.45751 0.40937,-4.37149 -1.86311,-4.80773 -0.58792,-0.004 -0.97031,0.536 -0.86339,-0.34537 0.0361,-0.85369 -1.22162,-1.13854 -0.69071,-1.90855 0.55591,-2.18891 -2.65275,-2.85623 -2.49021,-0.44533 -0.29686,0.52126 -0.99876,1.4119 -1.39053,1.38143 -0.27082,-2.03899 -1.17085,-4.11223 -0.2999,-6.12555 0.389,-1.48833 -0.16318,-2.91932 -1.05426,-4.06248 -0.97776,-1.66447 -0.9591,-3.64172 -1.49958,-5.40756 -0.82189,-0.52052 -0.0191,-1.39757 -0.15333,-2.24418 -0.033,-1.93558 0.52773,-4.1127 -0.19202,-5.92625 -1.33021,-0.66824 -1.90567,1.46912 -1.79041,2.4902 -0.007,0.39699 -1.0041,0.71544 -0.39989,1.3269 1.05379,1.10367 -0.11729,3.38458 1.20875,4.27153 -0.15432,0.55093 -0.0145,0.93893 -0.55438,0.39988 -0.27971,-0.80229 -0.11904,-1.95023 -0.83613,-2.47202 0.15567,-2.63823 -0.75331,-5.26198 -0.49077,-7.94322 0.14512,-2.05221 0.0394,-4.38976 1.36324,-6.07102 1.06235,-0.38308 1.77607,-2.25521 0.27267,-2.54473 -0.36684,-0.097 -0.7643,-0.0889 -1.14514,-0.0726 z m 95.12772,12.03296 c -1.07916,0.11257 -1.62203,1.87896 -0.2272,1.93582 1.34214,0.23278 1.77425,-2.0747 0.2272,-1.93582 z m 2.38115,4.64415 c -0.1566,1.22286 0.0512,-0.64772 0,0 z m -95.99111,4.53509 c 0.0963,0.93895 -0.30293,-0.31455 0,0 z m 79.15949,10.99689 c 0.56399,0.40536 -0.58739,-0.0672 0,0 z m -1.95399,1.18149 c -0.84707,1.03561 -1.91921,2.50161 -1.37235,3.80802 -1.70619,2.80427 -1.87483,6.30262 -2.6168,9.47059 -1.10192,5.4167 -0.99311,11.12877 0.89911,16.35849 0.15684,0.88444 0.80448,1.93447 1.09061,2.55382 -0.99547,0.47769 -2.1692,0.65475 -3.19002,1.11787 -0.0514,-2.69562 -0.78892,-5.32147 -0.59673,-8.05225 0.11107,-7.2721 0.24793,-14.67839 1.76004,-21.77571 0.32409,-0.86851 0.0337,-1.83031 0.87249,-2.34479 0.18986,-0.70041 0.56684,-1.30481 1.43595,-0.99972 0.63399,0.0183 1.27104,-0.0865 1.86311,-0.29991 l -0.14541,0.16359 z m -6.32549,2.09032 c -1.72,8.14982 -2.0509,16.60544 -1.52684,24.92024 0.0239,1.86291 1.34092,4.34391 -0.56348,5.59843 -0.80734,0.60115 -2.16382,1.65335 -2.91736,1.59046 0.95646,-4.22007 1.99954,-8.48222 1.73033,-12.86908 -0.0866,-4.06683 0.0358,-8.36112 -0.73061,-12.27838 0.082,0.56416 1.26236,1.97583 1.90855,0.86339 0.42057,-2.1379 0.16103,-4.49091 1.28146,-6.48908 0.16927,-0.43638 0.59669,-1.16481 0.81795,-1.33598 z m -64.08193,0.72707 c 0.52524,2.40338 1.76686,4.61342 2.44476,6.97076 0.19946,0.7733 1.17288,0.60243 1.2542,1.34507 0.53298,0.72718 1.26496,-0.14204 1.68134,-0.42715 -2.18148,3.10542 -1.32178,7.12637 -1.34223,10.68713 0.24281,1.86129 0.81356,3.60331 1.07525,5.48175 0.21405,1.56646 1.44202,3.1584 1.1849,4.70705 -0.87905,0.20041 -2.18322,0.24488 -1.70747,-1.09856 -0.20858,-4.19561 -0.18971,-8.48604 -1.85516,-12.40672 -0.39315,-2.19988 -1.68862,-4.49293 -1.19966,-6.75264 1.23267,-1.56483 -0.14636,-3.58139 -0.64527,-5.18944 -0.41547,-1.13289 -0.80325,-2.2485 -0.90884,-3.46267 l 0.0182,0.14542 z m 59.5014,3.36268 c 0.99206,-0.10784 0.25247,1.57952 0.44534,2.00852 -0.4083,-0.63835 -2.11524,0.22923 -1.17241,-0.65435 0.30791,-0.41145 0.52793,-0.91512 0.72707,-1.35417 z m -34.61751,2.38114 c -1.4451,0.48255 -3.11694,1.60197 -3.06278,3.25364 -1.45232,-0.45126 -2.36558,1.80134 -0.96336,2.46295 -0.35276,0.97909 -1.0179,2.30349 -1.34507,2.96279 -0.47447,-1.29366 -0.23729,-3.71433 -2.06306,-3.92617 -1.36392,0.23149 -2.14278,1.98786 -2.56291,2.87193 -0.37033,-0.55108 -0.29325,-1.64149 -1.28146,-1.63592 -1.87349,0.77704 -0.68331,5.00585 1.51776,4.42604 0.80971,-0.12946 1.47004,-0.97177 1.76314,-1.53594 0.87897,0.87802 1.20272,3.12764 2.82647,2.84466 1.38793,-0.95386 1.89604,-2.96222 2.8901,-4.12611 0.4888,0.88669 0.91115,3.20265 2.35387,2.48112 0.59845,-0.36669 0.15116,-1.81802 0.77252,-0.79977 0.4739,0.55575 0.70591,2.62095 2.04488,1.89036 1.45786,-1.36401 1.35965,-3.65742 2.09031,-5.41665 0.90805,2.40057 0.65949,5.03835 1.19058,7.50698 0.73195,1.32763 2.04716,-0.21904 1.99034,-1.22692 0.27181,-3.54563 -0.5203,-7.25806 -2.23573,-10.36072 -0.54718,-1.14344 -2.16083,-0.94117 -2.53565,0.20903 -0.55824,0.74463 -0.27536,1.82347 -0.50894,2.51748 -0.26638,-1.65227 -0.80453,-4.28181 -2.88101,-4.39878 z m 0.309,2.89011 c 0.0586,1.50572 -0.03,3.64923 -0.009,4.74411 -0.50379,-1.30485 -1.21794,-2.98554 -0.5453,-4.31696 0.15935,-0.15747 0.4119,-0.32585 0.55438,-0.42715 z m -18.94011,4.24425 c 2.17092,1.62131 0.76253,4.69319 1.43596,6.97985 0.35158,1.86428 1.20749,3.57343 1.89038,5.33487 -0.5081,0.20759 -1.62065,1.78286 -1.62682,0.41806 -0.78943,-4.19776 -2.05256,-8.4787 -1.72678,-12.75095 l 0.0272,0.0182 z m 6.8617,16.77709 c -1.16917,0.45523 -0.42493,-0.31307 0.3181,-0.16359 0.48944,-0.11107 -0.27084,0.12539 -0.3181,0.16359 z m 58.70164,2.74468 c 0.10374,-0.009 -0.0443,0.045 0,0 z m -68.90785,0.91792 c 0.79576,0.75375 -1.14734,0.0582 -0.009,-0.0272 l 0.009,0.0272 z m 62.20064,1.46323 c -0.23858,0.34849 -0.20982,-0.0348 0,0 z"
       id="path2890" />
    <path
       style="fill:#d45500"
       d="m 297.87411,371.65774 c -0.32818,-2.19447 -0.0663,-4.32865 0.58191,-4.74262 1.50689,-0.96233 0.75143,-6.62467 -0.87774,-6.57886 -0.67522,0.019 -1.94839,1.53823 -2.82926,3.3761 -1.70826,3.56416 -5.15063,4.56672 -5.15063,1.50008 0,-1.01283 -0.48802,-1.84151 -1.08449,-1.84151 -0.59647,0 -1.37402,-1.10719 -1.7279,-2.46042 -0.40481,-1.548 -1.31533,-2.20257 -2.45531,-1.76512 -1.89983,0.72903 -2.51216,-1.52604 -4.10296,-15.11034 -0.41513,-3.54491 -1.30944,-6.4453 -1.98734,-6.4453 -0.75042,0 -0.92539,-1.92095 -0.44731,-4.9107 0.62523,-3.90994 0.40701,-4.91069 -1.07077,-4.91069 -2.18237,0 -2.28266,-0.59192 -0.62502,-3.68923 0.72534,-1.35532 0.77268,-2.58339 0.11525,-2.98971 -0.61366,-0.37926 -0.8287,-1.78721 -0.47787,-3.12877 0.40445,-1.54662 -0.087,-2.71736 -1.34293,-3.19931 -2.49831,-0.95869 -2.59202,-6.59305 -0.16262,-9.77725 1.47114,-1.9282 2.02855,-2.06374 2.92025,-0.7101 0.92922,1.41059 1.65489,1.40647 4.62711,-0.0263 3.40444,-1.6411 3.51029,-1.96119 3.09359,-9.3552 -0.35698,-6.33443 -0.12079,-7.53675 1.36831,-6.96533 3.62848,1.39238 6.20169,11.6899 3.36001,13.44615 -2.93061,1.81122 -1.02913,3.35824 3.27015,2.66056 3.42035,-0.55505 4.15559,-0.38766 3.06919,0.69874 -0.78575,0.78575 -1.42864,1.93208 -1.42864,2.5474 0,1.54633 8.57266,-0.15472 12.04066,-2.3892 3.28605,-2.11725 9.58948,-1.7913 9.13673,0.47245 -0.34615,1.73075 1.7129,1.88386 10.02092,0.74512 4.12056,-0.56479 5.57927,-1.26003 5.12538,-2.44284 -0.71267,-1.85721 3.27836,-3.19381 10.13289,-3.39353 3.79913,-0.11068 4.46256,-0.60936 5.34501,-4.01763 0.68571,-2.64842 2.19867,-4.41292 4.73697,-5.52454 2.58734,-1.13309 3.55998,-2.2896 3.17598,-3.7764 -0.32123,-1.24379 0.94125,-3.74325 3.00852,-5.95627 1.95911,-2.09723 3.29543,-4.2445 2.96959,-4.77171 -0.32583,-0.52721 0.50496,-2.35366 1.8462,-4.05877 1.34124,-1.70512 2.43862,-3.70364 2.43862,-4.44116 0,-0.73753 0.82869,-1.34095 1.84152,-1.34095 1.01283,0 1.84151,-0.69768 1.84151,-1.5504 0,-2.60184 5.10192,-4.19111 8.96392,-2.7923 3.4638,1.25459 4.54435,0.89452 12.64202,-4.21262 1.7149,-1.08157 3.76837,-1.29748 6.13837,-0.64541 l 3.5614,0.97987 -3.3761,1.27823 c -4.17391,1.58029 -4.18826,2.11066 -0.15209,5.62007 2.70993,2.35625 3.69795,2.58732 6.19615,1.44907 6.25359,-2.84933 9.55771,0.29869 3.63846,3.46657 -3.04242,1.62826 -15.5963,1.35635 -19.50392,-0.42244 -1.42026,-0.64652 -2.14844,-0.45922 -2.14844,0.55261 0,0.84183 -0.94594,2.22229 -2.10209,3.06769 -1.85054,1.35314 -1.88942,1.79333 -0.32491,3.67845 2.15215,2.59317 3.02905,16.53946 1.03996,16.53946 -0.86136,0 -1.06066,1.49732 -0.5568,4.18312 0.52978,2.82397 0.29212,4.34734 -0.73145,4.68853 -2.03128,0.67709 -3.03374,17.82994 -1.15199,19.71168 1.94371,1.94371 1.70057,3.09163 -0.61273,2.89289 -2.0533,-0.17641 -5.32525,8.12273 -5.36275,13.6023 -0.0131,1.91295 -0.56681,2.51339 -1.86015,2.01708 -1.0914,-0.41881 -1.84151,-0.0131 -1.84151,0.99607 0,0.93649 -1.92752,3.52079 -4.28337,5.74289 -3.07908,2.90427 -4.9775,3.81988 -6.75221,3.25661 -2.09259,-0.66417 -2.46885,-0.2315 -2.46885,2.83898 0,2.56043 -0.70265,3.80632 -2.39648,4.24927 -1.31807,0.34468 -2.59181,0.0407 -2.83054,-0.67547 -0.56535,-1.69604 -5.82205,3.94221 -5.82205,6.24463 0,1.30467 -0.95824,1.57183 -3.68302,1.02688 -2.6462,-0.52924 -3.68303,-0.26714 -3.68303,0.93103 0,3.031 -5.05999,3.26795 -7.43838,0.34833 l -2.19229,-2.69119 -1.28374,3.35266 c -0.83531,2.18151 -1.90882,3.11279 -3.07317,2.66599 -1.08461,-0.41621 -2.64028,0.6119 -3.94962,2.61021 -1.81923,2.77649 -2.36931,3.0109 -3.48503,1.48506 -2.03639,-2.78494 -9.1051,-3.99132 -9.98292,-1.70375 -0.54127,1.41052 -6.39145,4.48042 -8.53814,4.48042 -0.16022,0 -0.55981,-1.79548 -0.88799,-3.98994 z m 49.14366,-64.52967 c 0.26728,-0.80183 -0.38876,-1.45786 -1.45786,-1.45786 -1.0691,0 -1.94382,0.87471 -1.94382,1.94381 0,2.16799 2.64289,1.79043 3.40168,-0.48595 z"
       id="path2900" />
    <path
       style="fill:#d45500"
       d="m 344.73009,394.41514 c 0,-0.27846 0.3125,-2.17368 0.69445,-4.21161 0.51991,-2.77403 0.654,-5.5618 0.5335,-11.0917 -0.13893,-6.3753 -0.0719,-7.38049 0.48941,-7.34332 0.42586,0.0282 0.72632,-0.47883 0.87037,-1.46879 0.12101,-0.83152 0.20093,4.00493 0.1776,10.74767 l -0.0424,12.25953 -1.03749,0.79765 c -1.20834,0.929 -1.68543,1.01691 -1.68543,0.31057 z"
       id="path2906" />
    <path
       style="fill:#d45500"
       d="m 350.10717,390.69649 c -0.38648,-4.63964 0.076,-15.68553 0.90817,-21.69265 0.68831,-4.96834 1.61132,-7.34331 2.85393,-7.34331 0.85486,0 1.07144,0.64264 0.36394,1.0799 -0.23758,0.14683 -0.43196,0.71771 -0.43196,1.26862 0,0.55091 -0.2763,1.66293 -0.614,2.47115 -1.13546,2.71754 -2.40972,10.6513 -2.40972,15.00331 0,3.76461 0.80653,8.49303 1.93337,11.33463 0.20401,0.51447 -0.0676,0.82539 -1.00713,1.15292 l -1.28648,0.44846 -0.31012,-3.72303 z"
       id="path2908" />
    <path
       style="fill:#d45500"
       d="m 287.77297,378.39897 c -1.45597,-4.91229 -1.16114,-7.44254 0.69232,-5.94169 0.88973,0.72046 0.93369,0.96055 0.54816,2.99345 -0.23053,1.21559 -0.2998,3.08087 -0.15394,4.14506 0.14586,1.06419 0.16991,1.93489 0.0534,1.93489 -0.11648,0 -0.62947,-1.40927 -1.13998,-3.13171 z"
       id="path2910" />
    <path
       style="fill:#d45500"
       d="m 397.95741,231.89911 c -0.54362,-4.95068 -0.22026,-7.55192 1.39181,-11.19636 l 1.13204,-2.55922 -0.15829,7.12733 c -0.1336,6.01591 -0.29398,7.41998 -1.02844,9.00403 l -0.87016,1.87669 -0.46696,-4.25247 z"
       id="path2912" />
    <path
       style="fill:#d45500"
       d="m 375.09147,226.24277 c 0.085,-2.55396 0.35212,-5.03233 0.59356,-5.50749 0.24143,-0.47515 0.98362,-1.93302 1.64931,-3.23969 1.28504,-2.52243 3.22879,-5.34713 3.49577,-5.08015 0.0881,0.0881 -0.60968,1.70448 -1.55054,3.59204 -2.0273,4.06716 -2.77127,7.59484 -2.37739,11.2728 0.25718,2.40153 0.19722,2.72655 -0.57965,3.14232 -0.47658,0.25506 -0.98331,0.46374 -1.12607,0.46374 -0.14276,0 -0.19001,-2.08961 -0.10499,-4.64357 z"
       id="path2914" />
  </g>
</svg>
